<?xml version="1.0" ?><svg xmlns="http://www.w3.org/2000/svg" xmlns:xlink="http://www.w3.org/1999/xlink" version="1.1" viewBox="0 0 512 512" style="enable-background:new 0 0 512 512;" xml:space="preserve"><g id="_x33_8_x2C__bread_x2C__breakfast_x2C__food_x2C__meal_x2C__food_and_restaurant"><g><path style="fill:#FAF0AF;" d="M501,406c0,38.658-31.339,70-70,70H81c-38.66,0-70-31.34-70-70c0-115.98,94.024-210,210-210    c21.941,0,49.434,0,70,0C406.46,196,501,289.513,501,406z"/><g><g><path d="M291,186h-70C99.397,186,1,284.412,1,406c0,44.112,35.888,80,80,80h350c44.112,0,80-35.888,80-80      C511,284.397,412.588,186,291,186z M431,466H81c-33.084,0-60-26.916-60-60c0-70.007,36.163-131.718,90.782-167.461      C104.628,256.808,101,276.029,101,296c0,5.522,4.478,10,10,10s10-4.478,10-10c0-26.279,7.195-51.112,21.35-73.875      c23.657-10.157,49.651-15.872,76.931-16.104c-18.348,27.23-27.96,57.973-27.96,89.978c0,5.522,4.478,10,10,10s10-4.478,10-10      c0-32.88,11.045-63.135,32.825-90H291c6.078,0,12.089,0.288,18.031,0.822c-18.177,27.127-27.38,57.05-27.38,89.178      c0,5.522,4.478,10,10,10s10-4.478,10-10c0-31.167,9.966-60.044,29.626-85.925c19.518,4.007,38.009,10.866,55.015,20.121      c-9.508,20.756-14.322,42.846-14.322,65.804c0,5.522,4.478,10,10,10s10-4.478,10-10c0-19.236,3.886-37.776,11.536-55.268      C456.284,276.774,491,337.406,491,406C491,439.084,464.084,466,431,466z"/><path d="M141,146c0,5.522,4.478,10,10,10s10-4.478,10-10c0-17.002-6.605-26.084-11.913-33.382      C144.393,106.162,141,101.498,141,91s3.393-15.162,8.087-21.618C154.395,62.084,161,53.002,161,36c0-5.522-4.478-10-10-10      s-10,4.478-10,10c0,10.498-3.393,15.162-8.087,21.618C127.605,64.916,121,73.998,121,91s6.605,26.084,11.913,33.382      C137.607,130.838,141,135.502,141,146z"/><path d="M211,146c0,5.522,4.478,10,10,10s10-4.478,10-10c0-17.002-6.605-26.084-11.913-33.382      C214.393,106.162,211,101.498,211,91s3.393-15.162,8.087-21.618C224.395,62.084,231,53.002,231,36c0-5.522-4.478-10-10-10      s-10,4.478-10,10c0,10.498-3.393,15.162-8.087,21.618C197.605,64.916,191,73.998,191,91s6.605,26.084,11.913,33.382      C207.607,130.838,211,135.502,211,146z"/><path d="M281,146c0,5.522,4.478,10,10,10s10-4.478,10-10c0-17.002-6.605-26.084-11.913-33.382      C284.393,106.162,281,101.498,281,91s3.393-15.162,8.087-21.618C294.395,62.084,301,53.002,301,36c0-5.522-4.478-10-10-10      s-10,4.478-10,10c0,10.498-3.393,15.162-8.087,21.618C267.605,64.916,261,73.998,261,91s6.605,26.084,11.913,33.382      C277.607,130.838,281,135.502,281,146z"/><path d="M351,146c0,5.522,4.478,10,10,10s10-4.478,10-10c0-17.002-6.605-26.084-11.913-33.382      C354.393,106.162,351,101.498,351,91s3.393-15.162,8.087-21.618C364.395,62.084,371,53.002,371,36c0-5.522-4.478-10-10-10      s-10,4.478-10,10c0,10.498-3.393,15.162-8.087,21.618C337.605,64.916,331,73.998,331,91s6.605,26.084,11.913,33.382      C347.607,130.838,351,135.502,351,146z"/></g></g></g></g><g id="Layer_1"/></svg>